<svg xmlns="http://www.w3.org/2000/svg" xmlns:xlink="http://www.w3.org/1999/xlink" width="500" zoomAndPan="magnify" viewBox="0 0 375 172.499995" height="230" preserveAspectRatio="xMidYMid meet" version="1.0"><defs><g/><clipPath id="7959bb3f93"><path d="M 83 22 L 129 22 L 129 89 L 83 89 Z M 83 22 " clip-rule="nonzero"/></clipPath><clipPath id="5be26fa6bc"><path d="M 17.746094 64.621094 L 84.902344 -2.539062 L 149.414062 61.976562 L 82.257812 129.132812 Z M 17.746094 64.621094 " clip-rule="nonzero"/></clipPath><clipPath id="26947227c8"><path d="M 17.746094 64.621094 L 84.902344 -2.539062 L 149.414062 61.976562 L 82.257812 129.132812 Z M 17.746094 64.621094 " clip-rule="nonzero"/></clipPath><clipPath id="bed3a740a8"><path d="M 17.746094 64.621094 L 84.902344 -2.539062 L 149.414062 61.976562 L 82.257812 129.132812 Z M 17.746094 64.621094 " clip-rule="nonzero"/></clipPath><clipPath id="3591ab7198"><path d="M 17 43 L 100 43 L 100 104 L 17 104 Z M 17 43 " clip-rule="nonzero"/></clipPath><clipPath id="302e1ce2ea"><path d="M 17.746094 64.621094 L 84.902344 -2.539062 L 149.414062 61.976562 L 82.257812 129.132812 Z M 17.746094 64.621094 " clip-rule="nonzero"/></clipPath><clipPath id="7efca6f5a5"><path d="M 17.746094 64.621094 L 84.902344 -2.539062 L 149.414062 61.976562 L 82.257812 129.132812 Z M 17.746094 64.621094 " clip-rule="nonzero"/></clipPath><clipPath id="a0eb69549e"><path d="M 17.746094 64.621094 L 84.902344 -2.539062 L 149.414062 61.976562 L 82.257812 129.132812 Z M 17.746094 64.621094 " clip-rule="nonzero"/></clipPath></defs><g clip-path="url(#7959bb3f93)"><g clip-path="url(#5be26fa6bc)"><g clip-path="url(#26947227c8)"><g clip-path="url(#bed3a740a8)"><path fill="#80cc28" d="M 128.03125 60.238281 C 124.863281 37.5 86.796875 22.355469 86.796875 22.355469 C 86.796875 22.355469 91.195312 42.6875 85.914062 54.882812 C 82.378906 63.03125 77.859375 89.113281 108.945312 88.296875 C 109.277344 88.289062 109.621094 88.273438 109.96875 88.246094 C 113.722656 76.5625 117.449219 50.515625 89.242188 25.304688 C 89.242188 25.304688 124.984375 50.402344 111.8125 88.039062 C 120.171875 86.785156 130.863281 80.550781 128.03125 60.238281 " fill-opacity="1" fill-rule="nonzero"/></g></g></g></g><g clip-path="url(#3591ab7198)"><g clip-path="url(#302e1ce2ea)"><g clip-path="url(#7efca6f5a5)"><g clip-path="url(#a0eb69549e)"><path fill="#27963c" d="M 79.902344 65.960938 C 66.25 59.847656 47.429688 56.878906 22.613281 63.964844 C 22.613281 63.964844 52.347656 51.566406 80.414062 63.207031 C 80.882812 61.152344 81.476562 59.371094 82.046875 58.058594 C 83.679688 54.285156 84.386719 49.738281 84.585938 45.253906 C 57.976562 35.378906 17.792969 64.589844 17.792969 64.589844 C 17.792969 64.589844 42.597656 73.644531 52.097656 87.570312 C 58.035156 96.28125 80.246094 116.5625 99.644531 91.320312 C 80.695312 89.632812 78.445312 75.878906 79.902344 65.960938 " fill-opacity="1" fill-rule="nonzero"/></g></g></g></g><g fill="#394434" fill-opacity="1"><g transform="translate(114.655752, 112.747052)"><g><path d="M 7.390625 -6.15625 L 7.390625 -55.125 C 7.390625 -57 8.046875 -58.59375 9.359375 -59.90625 C 10.679688 -61.226562 12.28125 -61.890625 14.15625 -61.890625 L 15.5625 -61.890625 C 17.195312 -61.890625 18.539062 -61.519531 19.59375 -60.78125 C 20.65625 -60.050781 21.65625 -59.101562 22.59375 -57.9375 L 48.703125 -23.640625 L 48.703125 -55.375 C 48.703125 -57.25 49.34375 -58.832031 50.625 -60.125 C 51.914062 -61.414062 53.5 -62.0625 55.375 -62.0625 C 57.25 -62.0625 58.832031 -61.414062 60.125 -60.125 C 61.414062 -58.832031 62.0625 -57.25 62.0625 -55.375 L 62.0625 -6.421875 C 62.0625 -4.546875 61.398438 -2.945312 60.078125 -1.625 C 58.765625 -0.300781 57.171875 0.359375 55.296875 0.359375 L 54.859375 0.359375 C 53.210938 0.359375 51.863281 -0.00390625 50.8125 -0.734375 C 49.757812 -1.472656 48.765625 -2.429688 47.828125 -3.609375 L 20.75 -39.125 L 20.75 -6.15625 C 20.75 -4.28125 20.101562 -2.695312 18.8125 -1.40625 C 17.519531 -0.113281 15.9375 0.53125 14.0625 0.53125 C 12.1875 0.53125 10.601562 -0.113281 9.3125 -1.40625 C 8.03125 -2.695312 7.390625 -4.28125 7.390625 -6.15625 Z M 7.390625 -6.15625 "/></g></g></g><g fill="#394434" fill-opacity="1"><g transform="translate(174.960281, 112.747052)"><g><path d="M 3.875 -26.015625 C 3.875 -29.535156 4.457031 -32.65625 5.625 -35.375 C 6.800781 -38.101562 8.351562 -40.40625 10.28125 -42.28125 C 12.21875 -44.15625 14.445312 -45.578125 16.96875 -46.546875 C 19.488281 -47.515625 22.097656 -48 24.796875 -48 C 28.421875 -48 31.40625 -47.320312 33.75 -45.96875 C 36.09375 -44.625 38.175781 -42.957031 40 -40.96875 L 40 -41.046875 C 40 -42.867188 40.640625 -44.421875 41.921875 -45.703125 C 43.210938 -46.992188 44.796875 -47.640625 46.671875 -47.640625 C 48.546875 -47.640625 50.128906 -46.992188 51.421875 -45.703125 C 52.710938 -44.421875 53.359375 -42.84375 53.359375 -40.96875 L 53.359375 -10.640625 C 53.359375 -6.179688 52.800781 -2.375 51.6875 0.78125 C 50.570312 3.945312 48.914062 6.523438 46.71875 8.515625 C 44.519531 10.515625 41.78125 11.96875 38.5 12.875 C 35.21875 13.78125 31.410156 14.234375 27.078125 14.234375 C 23.910156 14.234375 20.945312 13.984375 18.1875 13.484375 C 15.4375 12.992188 12.65625 12.160156 9.84375 10.984375 C 8.675781 10.515625 7.753906 9.835938 7.078125 8.953125 C 6.398438 8.078125 6.0625 7.023438 6.0625 5.796875 C 6.0625 4.273438 6.585938 2.988281 7.640625 1.9375 C 8.703125 0.882812 9.992188 0.359375 11.515625 0.359375 C 12.222656 0.359375 12.957031 0.503906 13.71875 0.796875 C 15.644531 1.554688 17.660156 2.210938 19.765625 2.765625 C 21.878906 3.328125 24.195312 3.609375 26.71875 3.609375 C 31.289062 3.609375 34.675781 2.519531 36.875 0.34375 C 39.070312 -1.820312 40.171875 -5.015625 40.171875 -9.234375 L 40.171875 -11.515625 C 38.179688 -9.054688 36.015625 -7.164062 33.671875 -5.84375 C 31.328125 -4.53125 28.367188 -3.875 24.796875 -3.875 C 22.035156 -3.875 19.394531 -4.351562 16.875 -5.3125 C 14.351562 -6.28125 12.125 -7.703125 10.1875 -9.578125 C 8.257812 -11.453125 6.722656 -13.75 5.578125 -16.46875 C 4.441406 -19.195312 3.875 -22.320312 3.875 -25.84375 Z M 28.65625 -14.9375 C 30.300781 -14.9375 31.828125 -15.203125 33.234375 -15.734375 C 34.640625 -16.265625 35.851562 -17.007812 36.875 -17.96875 C 37.90625 -18.9375 38.710938 -20.09375 39.296875 -21.4375 C 39.878906 -22.789062 40.171875 -24.257812 40.171875 -25.84375 L 40.171875 -26.015625 C 40.171875 -27.597656 39.878906 -29.0625 39.296875 -30.40625 C 38.710938 -31.757812 37.90625 -32.921875 36.875 -33.890625 C 35.851562 -34.859375 34.640625 -35.601562 33.234375 -36.125 C 31.828125 -36.65625 30.300781 -36.921875 28.65625 -36.921875 C 27.019531 -36.921875 25.507812 -36.65625 24.125 -36.125 C 22.75 -35.601562 21.546875 -34.859375 20.515625 -33.890625 C 19.492188 -32.921875 18.691406 -31.757812 18.109375 -30.40625 C 17.523438 -29.0625 17.234375 -27.597656 17.234375 -26.015625 L 17.234375 -25.84375 C 17.234375 -22.5 18.300781 -19.84375 20.4375 -17.875 C 22.570312 -15.914062 25.3125 -14.9375 28.65625 -14.9375 Z M 28.65625 -14.9375 "/></g></g></g><g fill="#394434" fill-opacity="1"><g transform="translate(225.155398, 112.747052)"><g><path d="M 29.265625 -48 C 32.898438 -48 36.269531 -47.367188 39.375 -46.109375 C 42.488281 -44.847656 45.171875 -43.117188 47.421875 -40.921875 C 49.679688 -38.722656 51.453125 -36.144531 52.734375 -33.1875 C 54.023438 -30.226562 54.671875 -27.046875 54.671875 -23.640625 L 54.671875 -23.46875 C 54.671875 -20.070312 54.023438 -16.894531 52.734375 -13.9375 C 51.453125 -10.976562 49.664062 -8.382812 47.375 -6.15625 C 45.09375 -3.925781 42.398438 -2.164062 39.296875 -0.875 C 36.191406 0.414062 32.789062 1.0625 29.09375 1.0625 C 25.457031 1.0625 22.085938 0.429688 18.984375 -0.828125 C 15.878906 -2.085938 13.195312 -3.816406 10.9375 -6.015625 C 8.6875 -8.210938 6.914062 -10.789062 5.625 -13.75 C 4.332031 -16.71875 3.6875 -19.898438 3.6875 -23.296875 L 3.6875 -23.46875 C 3.6875 -26.863281 4.332031 -30.039062 5.625 -33 C 6.914062 -35.96875 8.703125 -38.5625 10.984375 -40.78125 C 13.273438 -43.007812 15.972656 -44.769531 19.078125 -46.0625 C 22.179688 -47.351562 25.578125 -48 29.265625 -48 Z M 29.265625 -10.453125 C 31.203125 -10.453125 32.914062 -10.789062 34.40625 -11.46875 C 35.90625 -12.144531 37.179688 -13.066406 38.234375 -14.234375 C 39.296875 -15.410156 40.101562 -16.773438 40.65625 -18.328125 C 41.207031 -19.878906 41.484375 -21.535156 41.484375 -23.296875 L 41.484375 -23.46875 C 41.484375 -25.226562 41.191406 -26.882812 40.609375 -28.4375 C 40.023438 -29.988281 39.175781 -31.363281 38.0625 -32.5625 C 36.945312 -33.769531 35.640625 -34.722656 34.140625 -35.421875 C 32.648438 -36.128906 30.96875 -36.484375 29.09375 -36.484375 C 27.164062 -36.484375 25.453125 -36.144531 23.953125 -35.46875 C 22.460938 -34.789062 21.1875 -33.863281 20.125 -32.6875 C 19.070312 -31.519531 18.265625 -30.160156 17.703125 -28.609375 C 17.148438 -27.054688 16.875 -25.398438 16.875 -23.640625 L 16.875 -23.46875 C 16.875 -21.707031 17.164062 -20.050781 17.75 -18.5 C 18.34375 -16.945312 19.195312 -15.570312 20.3125 -14.375 C 21.425781 -13.175781 22.742188 -12.222656 24.265625 -11.515625 C 25.785156 -10.804688 27.453125 -10.453125 29.265625 -10.453125 Z M 29.265625 -10.453125 "/></g></g></g><g fill="#394434" fill-opacity="1"><g transform="translate(274.383536, 112.747052)"><g><path d="M 28.390625 -48 C 31.960938 -48 35.035156 -47.539062 37.609375 -46.625 C 40.191406 -45.71875 42.484375 -44.414062 44.484375 -42.71875 C 44.953125 -42.363281 45.421875 -41.804688 45.890625 -41.046875 C 46.359375 -40.285156 46.59375 -39.320312 46.59375 -38.15625 C 46.59375 -36.457031 46.003906 -35.035156 44.828125 -33.890625 C 43.660156 -32.742188 42.226562 -32.171875 40.53125 -32.171875 C 39.644531 -32.171875 38.878906 -32.316406 38.234375 -32.609375 C 37.585938 -32.898438 37.0625 -33.195312 36.65625 -33.5 C 35.488281 -34.4375 34.242188 -35.164062 32.921875 -35.6875 C 31.597656 -36.21875 30.0625 -36.484375 28.3125 -36.484375 C 26.664062 -36.484375 25.140625 -36.144531 23.734375 -35.46875 C 22.328125 -34.789062 21.109375 -33.863281 20.078125 -32.6875 C 19.054688 -31.519531 18.265625 -30.160156 17.703125 -28.609375 C 17.148438 -27.054688 16.875 -25.398438 16.875 -23.640625 L 16.875 -23.46875 C 16.875 -21.65625 17.148438 -19.957031 17.703125 -18.375 C 18.265625 -16.789062 19.070312 -15.410156 20.125 -14.234375 C 21.1875 -13.066406 22.445312 -12.144531 23.90625 -11.46875 C 25.375 -10.789062 27.015625 -10.453125 28.828125 -10.453125 C 30.585938 -10.453125 32.1875 -10.726562 33.625 -11.28125 C 35.0625 -11.84375 36.394531 -12.65625 37.625 -13.71875 C 37.976562 -14.007812 38.460938 -14.285156 39.078125 -14.546875 C 39.691406 -14.804688 40.410156 -14.9375 41.234375 -14.9375 C 42.804688 -14.9375 44.132812 -14.378906 45.21875 -13.265625 C 46.3125 -12.160156 46.859375 -10.816406 46.859375 -9.234375 C 46.859375 -8.347656 46.679688 -7.550781 46.328125 -6.84375 C 45.972656 -6.144531 45.503906 -5.535156 44.921875 -5.015625 C 42.929688 -3.191406 40.613281 -1.722656 37.96875 -0.609375 C 35.332031 0.503906 32.082031 1.0625 28.21875 1.0625 C 24.695312 1.0625 21.425781 0.414062 18.40625 -0.875 C 15.394531 -2.164062 12.804688 -3.910156 10.640625 -6.109375 C 8.472656 -8.304688 6.769531 -10.882812 5.53125 -13.84375 C 4.300781 -16.800781 3.6875 -19.953125 3.6875 -23.296875 L 3.6875 -23.46875 C 3.6875 -26.8125 4.300781 -29.976562 5.53125 -32.96875 C 6.769531 -35.957031 8.472656 -38.5625 10.640625 -40.78125 C 12.804688 -43.007812 15.410156 -44.769531 18.453125 -46.0625 C 21.503906 -47.351562 24.816406 -48 28.390625 -48 Z M 28.390625 -48 "/></g></g></g><g fill="#394434" fill-opacity="1"><g transform="translate(315.446861, 112.747052)"><g><path d="M 4.921875 -7.125 C 4.921875 -9.226562 5.640625 -11 7.078125 -12.4375 C 8.515625 -13.875 10.347656 -14.59375 12.578125 -14.59375 C 14.796875 -14.59375 16.625 -13.875 18.0625 -12.4375 C 19.5 -11 20.21875 -9.226562 20.21875 -7.125 L 20.21875 -6.9375 C 20.21875 -4.832031 19.5 -3.0625 18.0625 -1.625 C 16.625 -0.1875 14.796875 0.53125 12.578125 0.53125 C 10.347656 0.53125 8.515625 -0.1875 7.078125 -1.625 C 5.640625 -3.0625 4.921875 -4.832031 4.921875 -6.9375 Z M 4.921875 -7.125 "/></g></g></g><g fill="#26973c" fill-opacity="1"><g transform="translate(181.277689, 144.297708)"><g><path d="M 12.171875 0 L 9.890625 0 L 9.875 -6.59375 L 7.4375 -1.015625 L 5.75 -1.015625 L 3.328125 -6.59375 L 3.328125 0 L 1.015625 0 L 1.015625 -10.171875 L 3.84375 -10.171875 L 6.59375 -4.125 L 9.359375 -10.171875 L 12.171875 -10.171875 Z M 12.171875 0 "/></g></g></g><g fill="#26973c" fill-opacity="1"><g transform="translate(198.577384, 144.297708)"><g><path d="M 7.75 -1.875 L 3.328125 -1.875 L 2.578125 0 L -0.078125 0 L 4.3125 -10.15625 L 6.953125 -10.15625 L 11.234375 0 L 8.484375 0 Z M 7 -3.828125 L 5.546875 -7.578125 L 4.078125 -3.828125 Z M 7 -3.828125 "/></g></g></g><g fill="#26973c" fill-opacity="1"><g transform="translate(213.848974, 144.297708)"><g><path d="M 8.765625 -8.078125 L 5.71875 -8.078125 L 5.71875 0 L 3.125 0 L 3.125 -8.078125 L 0.09375 -8.078125 L 0.09375 -10.171875 L 8.765625 -10.171875 Z M 8.765625 -8.078125 "/></g></g></g><g fill="#26973c" fill-opacity="1"><g transform="translate(226.817225, 144.297708)"><g><path d="M 5.765625 -10.234375 C 6.523438 -10.234375 7.269531 -10.078125 8 -9.765625 C 8.726562 -9.460938 9.347656 -9.050781 9.859375 -8.53125 L 8.359375 -6.75 C 8.035156 -7.15625 7.644531 -7.476562 7.1875 -7.71875 C 6.726562 -7.957031 6.269531 -8.078125 5.8125 -8.078125 C 5.007812 -8.078125 4.335938 -7.789062 3.796875 -7.21875 C 3.253906 -6.65625 2.984375 -5.960938 2.984375 -5.140625 C 2.984375 -4.285156 3.253906 -3.570312 3.796875 -3 C 4.335938 -2.425781 5.007812 -2.140625 5.8125 -2.140625 C 6.238281 -2.140625 6.679688 -2.242188 7.140625 -2.453125 C 7.597656 -2.671875 8.003906 -2.960938 8.359375 -3.328125 L 9.875 -1.734375 C 9.320312 -1.179688 8.671875 -0.734375 7.921875 -0.390625 C 7.171875 -0.0546875 6.425781 0.109375 5.6875 0.109375 C 4.15625 0.109375 2.878906 -0.382812 1.859375 -1.375 C 0.847656 -2.375 0.34375 -3.617188 0.34375 -5.109375 C 0.34375 -6.566406 0.859375 -7.785156 1.890625 -8.765625 C 2.929688 -9.742188 4.222656 -10.234375 5.765625 -10.234375 Z M 5.765625 -10.234375 "/></g></g></g><g fill="#26973c" fill-opacity="1"><g transform="translate(240.958872, 144.297708)"><g><path d="M 10.375 0 L 7.796875 0 L 7.796875 -3.9375 L 3.59375 -3.9375 L 3.59375 0 L 1.015625 0 L 1.015625 -10.15625 L 3.59375 -10.15625 L 3.59375 -5.96875 L 7.796875 -5.96875 L 7.796875 -10.15625 L 10.375 -10.15625 Z M 10.375 0 "/></g></g></g><g fill="#26973c" fill-opacity="1"><g transform="translate(256.462251, 144.297708)"><g><path d="M 7.75 -1.875 L 3.328125 -1.875 L 2.578125 0 L -0.078125 0 L 4.3125 -10.15625 L 6.953125 -10.15625 L 11.234375 0 L 8.484375 0 Z M 7 -3.828125 L 5.546875 -7.578125 L 4.078125 -3.828125 Z M 7 -3.828125 "/></g></g></g></svg>